{"title":"Gold.Rush.Season.Five.Sneak.Peak.WEBRiP-DB666","uid":11191848,"size":566327911,"categoryP":"video","categoryS":"hd___tv_shows","magnet":"?xt=urn:btih:699bcd8c1e5d53fe0bc6cf729e3ffd949f3d9599&amp;dn=Gold.Rush.Season.Five.Sneak.Peak.WEBRiP-DB666&amp;tr=udp%3A%2F%2Ftracker.openbittorrent.com%3A80&amp;tr=udp%3A%2F%2Fopen.demonii.com%3A1337&amp;tr=udp%3A%2F%2Ftracker.coppersurfer.tk%3A6969&amp;tr=udp%3A%2F%2Fexodus.desync.com%3A6969","seeders":1,"leechers":0,"uploader":"danyboy666","files":3,"time":1413005790,"description":"*******************************************************************************\n                     Gold Rush - Season Five: Sneak Peak\n*******************************************************************************\n\n-------------------------------------------------------------------------------\n                            General Information\n-------------------------------------------------------------------------------\nType.................: TV Show\nMore Info............: http://www.imdb.com/title/tt1800864/\n\nAudio................: English\nResolution...........: 1080P\nCodec................: AVC\nSignal Source........: Web\n\nGeneral\nComplete name                            : .Gold Rush - Season Five Sneak Peak.mp4\nFormat                                   : MPEG-4\nFormat profile                           : Base Media / Version 2\nCodec ID                                 : mp42\nFile size                                : 540 MiB\nDuration                                 : 7mn 14s\nOverall bit rate mode                    : Variable\nOverall bit rate                         : 10.4 Mbps\nEncoded date                             : UTC 2011-11-04 14:57:23\nTagged date                              : UTC 2011-11-04 14:57:23\nWriting library                          : Apple QuickTime\n\nVideo\nID                                       : 1\nFormat                                   : AVC\nFormat/Info                              : Advanced Video Codec\nFormat profile                           : &lt;a class=&quot;__cf_email__&quot; href=&quot;/cdn-cgi/l/email-protection&quot; data-cfemail=&quot;074f6e606f474b322937&quot;&gt;[email&amp;#160;protected]&lt;/a&gt;&lt;script cf-hash='f9e31' type=&quot;text/javascript&quot;&gt;\n/* &lt;![CDATA[ */!function(){try{var t=&quot;currentScript&quot;in document?document.currentScript:function(){for(var t=document.getElementsByTagName(&quot;script&quot;),e=t.length;e--;)if(t[e].getAttribute(&quot;cf-hash&quot;))return t[e]}();if(t&amp;&amp;t.previousSibling){var e,r,n,i,c=t.previousSibling,a=c.getAttribute(&quot;data-cfemail&quot;);if(a){for(e=&quot;&quot;,r=parseInt(a.substr(0,2),16),n=2;a.length-n;n+=2)i=parseInt(a.substr(n,2),16)^r,e+=String.fromCharCode(i);e=document.createTextNode(e),c.parentNode.replaceChild(e,c)}}}catch(u){}}();/* ]]&gt; */&lt;/script&gt;\nFormat settings, CABAC                   : No\nFormat settings, ReFrames                : 5 frames\nCodec ID                                 : avc1\nCodec ID/Info                            : Advanced Video Coding\nDuration                                 : 7mn 14s\nSource duration                          : 7mn 14s\nBit rate mode                            : Constant\nBit rate                                 : 5 000 Kbps\nWidth                                    : 1 920 pixels\nHeight                                   : 1 080 pixels\nDisplay aspect ratio                     : 16:9\nFrame rate mode                          : Constant\nFrame rate                               : 29.970 fps\nColor space                              : YUV\nChroma subsampling                       : 4:2:0\nBit depth                                : 8 bits\nScan type                                : Progressive\nBits/(Pixel*Frame)                       : 0.080\nStream size                              : 259 MiB (48%)\nSource stream size                       : 259 MiB (48%)\nLanguage                                 : English\nEncoded date                             : UTC 2011-11-04 14:57:23\nTagged date                              : UTC 2011-11-04 14:57:23\nColor primaries                          : BT.709\nTransfer characteristics                 : BT.709\nMatrix coefficients                      : BT.709\nmdhd_Duration                            : 434968\n\nAudio\nID                                       : 4\nFormat                                   : AAC\nFormat/Info                              : Advanced Audio Codec\nFormat profile                           : LC\nCodec ID                                 : 40\nDuration                                 : 7mn 14s\nSource duration                          : 7mn 14s\nBit rate mode                            : Variable\nBit rate                                 : 64.0 Kbps\nMaximum bit rate                         : 72.8 Kbps\nChannel(s)                               : 2 channels\nChannel positions                        : Front: L R\nSampling rate                            : 44.1 KHz\nCompression mode                         : Lossy\nStream size                              : 3.32 MiB (1%)\nSource stream size                       : 3.32 MiB (1%)\nLanguage                                 : English\nEncoded date                             : UTC 2011-11-04 14:57:23\nTagged date                              : UTC 2011-11-04 14:57:23\n\nOther #1\nID                                       : 2\nType                                     : Hint\nFormat                                   : RTP\nCodec ID                                 : rtp \nDuration                                 : 7mn 14s\nLanguage                                 : English\nEncoded date                             : UTC 2011-11-04 14:57:23\nTagged date                              : UTC 2011-11-04 14:57:23\nSource duration                          : 434910\nSource frame count                       : 3819\nSource stream size                       : 3647507\nStream size                              : 3646734\nmdhd_Duration                            : 434863\nBit rate mode                            : VBR\n\nOther #2\nID                                       : 3\nType                                     : Hint\nFormat                                   : RTP\nCodec ID                                 : rtp \nDuration                                 : 7mn 14s\nLanguage                                 : English\nEncoded date                             : UTC 2011-11-04 14:57:23\nTagged date                              : UTC 2011-11-04 14:57:23\nSource duration                          : 434935\nSource frame count                       : 13035\nSource stream size                       : 287446326\nStream size                              : 287424555\nmdhd_Duration                            : 434968\nBit rate mode                            : VBR\n\nOther #3\nID                                       : 5\nType                                     : Object description\nFormat                                   : System Core\nCodec ID                                 : 2\nDuration                                 : 7mn 14s\nTitle                                    : \u0001\nLanguage                                 : English\nEncoded date                             : UTC 2011-11-04 14:57:23\nTagged date                              : UTC 2011-11-04 14:57:23\nmdhd_Duration                            : 1000\n\nOther #4\nID                                       : 6\nType                                     : Scene description\nFormat                                   : System Core\nCodec ID                                 : 2\nDuration                                 : 7mn 14s\nLanguage                                 : English\nEncoded date                             : UTC 2011-11-04 14:57:23\nTagged date                              : UTC 2011-11-04 14:57:23\nmdhd_Duration                            : 1000\n\n\n\n\n\n\n-------------------------------------------------------------------------------\n                             Post Information\n-------------------------------------------------------------------------------\nPosted by............: danyboy666\nPosted on............: 2014-10-10\n\n-------------------------------------------------------------------------------\n                               Release Notes\n-------------------------------------------------------------------------------\n\n\nA new crew, new machines, bold predictions and shocking turns: get an exclusive \nsneak peek at season five of Gold Rush, coming this fall to Discovery!","torrent":{"xt":"urn:btih:699bcd8c1e5d53fe0bc6cf729e3ffd949f3d9599","amp;dn":"Gold.Rush.Season.Five.Sneak.Peak.WEBRiP-DB666","amp;tr":["udp%3A%2F%2Ftracker.openbittorrent.com%3A80","udp%3A%2F%2Fopen.demonii.com%3A1337","udp%3A%2F%2Ftracker.coppersurfer.tk%3A6969","udp%3A%2F%2Fexodus.desync.com%3A6969"],"infoHash":"699bcd8c1e5d53fe0bc6cf729e3ffd949f3d9599","infoHashBuffer":{"type":"Buffer","data":[105,155,205,140,30,93,83,254,11,198,207,114,158,63,253,148,159,61,149,153]},"announce":[],"urlList":[]}}